<?xml version="1.0" encoding="UTF-8"?>
<svg version="1.1" xmlns="http://www.w3.org/2000/svg" width="367" height="352">
<path d="M0 0 C1.88678169 1.38683128 1.88678169 1.38683128 3.79177856 3.11825562 C4.48918278 3.75079632 5.18658699 4.38333702 5.90512466 5.03504562 C9.12014201 8.05067251 12.27443399 11.11881905 15.39404297 14.23291016 C16.08450211 14.91840439 16.77496124 15.60389862 17.48634338 16.31016541 C19.74103242 18.55039538 21.99194075 20.79437093 24.2421875 23.0390625 C25.01566654 23.80971416 25.78914558 24.58036583 26.58606339 25.37437057 C30.66945298 29.44284324 34.75001546 33.51412563 38.828125 37.58789062 C43.03803985 41.79229391 47.25717198 45.98732029 51.4784832 50.18027687 C54.72967574 53.41286653 57.97416116 56.65212437 61.21683121 59.89326096 C62.77009133 61.44349493 64.32585165 62.99122804 65.88415146 64.53639603 C68.05733877 66.69255306 70.22089151 68.85794748 72.38232422 71.02587891 C73.02646774 71.66080765 73.67061127 72.29573639 74.33427429 72.9499054 C78.04913187 76.69991224 80.78564446 79.79016322 81.15234375 85.28125 C80.60872943 90.89530337 79.44907417 93.25873308 75 97 C74.175 97.99 73.35 98.98 72.5 100 C69.25123221 103.89852135 65.86950921 107.29019657 61.9375 110.5 C59.18754889 112.84038392 57.2017103 115.15908348 55 118 C52.44804154 120.68627207 49.8773493 123.0996537 47 125.4375 C43.92096119 128.06751232 41.54921599 130.8625034 39 134 C36.44387364 136.68720976 33.8800189 139.09748464 31 141.4375 C27.92096119 144.06751232 25.54921599 146.8625034 23 150 C20.58003771 152.5409604 18.20383254 154.84091119 15.4375 157 C12.85522947 159.11878607 11.05109914 161.37202922 9 164 C4.41107639 168.94191773 1.00015696 172.10484961 -5.875 172.5625 C-10.80027455 172.43734355 -13.2522575 170.88838917 -16.72265625 167.5078125 C-19.54706223 164.17380421 -19.51098981 160.89818751 -19.48046875 156.66796875 C-18.62037361 151.8919933 -15.43207296 149.20636604 -12 146 C-10.33061225 144.33605887 -8.66416979 142.66915981 -7 141 C4 130 4 130 6.7265625 127.30859375 C9.03037586 125.06283849 9.03037586 125.06283849 10.875 122.5625 C13.13157284 119.84133864 15.56217204 117.73131032 18.265625 115.47265625 C21.43805168 112.77895162 24.28767808 109.93338735 26.8125 106.625 C28.71860581 104.33767302 30.55507877 102.60196685 32.8125 100.6875 C36.40790836 97.62871975 39.45148872 94.3329982 42.45703125 90.69921875 C44 89 44 89 47 87 C46.81171228 84.55519921 46.81171228 84.55519921 46 82 C44.671262 81.32422078 43.33693176 80.65942073 42 80 C40.43896381 78.6227375 38.92728883 77.18862312 37.453125 75.71875 C36.60878906 74.87699219 35.76445313 74.03523438 34.89453125 73.16796875 C34.02183594 72.28753906 33.14914063 71.40710938 32.25 70.5 C31.36183594 69.61957031 30.47367188 68.73914063 29.55859375 67.83203125 C28.71941406 66.99027344 27.88023438 66.14851563 27.015625 65.28125 C26.24508789 64.50845703 25.47455078 63.73566406 24.68066406 62.93945312 C23 61 23 61 23 59 C22.4225 58.7525 21.845 58.505 21.25 58.25 C18.67060021 56.81700012 16.93878408 55.21575324 15 53 C15 52.34 15 51.68 15 51 C14.4337793 50.75830078 13.86755859 50.51660156 13.28417969 50.26757812 C10.5477726 48.74904183 8.66930662 46.92848119 6.453125 44.71875 C5.18662109 43.45611328 5.18662109 43.45611328 3.89453125 42.16796875 C3.02183594 41.28753906 2.14914063 40.40710938 1.25 39.5 C0.36183594 38.61957031 -0.52632812 37.73914063 -1.44140625 36.83203125 C-2.28058594 35.99027344 -3.11976562 35.14851563 -3.984375 34.28125 C-4.75491211 33.50845703 -5.52544922 32.73566406 -6.31933594 31.93945312 C-8 30 -8 30 -8 28 C-8.59425781 27.7421875 -9.18851563 27.484375 -9.80078125 27.21875 C-12.177507 25.90163023 -13.46785573 24.58656066 -15.1875 22.5 C-15.69667969 21.8915625 -16.20585938 21.283125 -16.73046875 20.65625 C-19.73422282 16.73750623 -19.56184447 12.76765167 -19 8 C-17.11280615 3.92366128 -15.60608262 2.36131848 -11.75 0.0625 C-7.48700931 -1.14534736 -4.15201403 -1.57117301 0 0 Z " fill="#151515" transform="translate(84,60)"/>
<path d="M0 0 C1.68453026 -0.0129007 1.68453026 -0.0129007 3.40309143 -0.02606201 C4.64104462 -0.03032196 5.8789978 -0.03458191 7.15446472 -0.03897095 C9.10332329 -0.05123718 9.10332329 -0.05123718 11.09155273 -0.06375122 C15.40701725 -0.08997539 19.72249149 -0.10527896 24.03800964 -0.11953735 C25.52314956 -0.12489682 27.0082894 -0.13027433 28.49342918 -0.13566971 C34.67076813 -0.15729878 40.84810445 -0.17603585 47.02547169 -0.1872921 C55.88088262 -0.20353393 64.73585494 -0.23671645 73.59110051 -0.29369295 C79.81622063 -0.33238225 86.04122339 -0.35192354 92.2664606 -0.35721266 C95.98524133 -0.36086751 99.70355431 -0.37290179 103.42220497 -0.4053154 C107.57150518 -0.44096426 111.71986181 -0.43702784 115.86930847 -0.42959595 C117.10118896 -0.44600128 118.33306946 -0.46240662 119.60227966 -0.47930908 C127.93231577 -0.41806781 127.93231577 -0.41806781 131.88327026 2.50286865 C135.67288814 8.01466518 136.87965294 11.46597881 135.70597839 18.15390015 C133.86629356 21.48086266 131.65704022 24.52702876 127.92994308 25.72453594 C125.38160872 26.21652377 123.01574807 26.28913859 120.41941833 26.30107117 C119.34846924 26.30822647 118.27752014 26.31538177 117.17411804 26.32275391 C115.41920044 26.32678726 115.41920044 26.32678726 113.62882996 26.3309021 C111.77454376 26.3407589 111.77454376 26.3407589 109.88279724 26.35081482 C105.78739682 26.37054328 101.69203552 26.38221279 97.59660339 26.3921814 C96.18396231 26.39623074 94.77132142 26.40034772 93.35868073 26.40453148 C86.72078952 26.42357279 80.08290937 26.43780598 73.44499612 26.44614345 C65.79511708 26.45591197 58.14552768 26.48222558 50.49575067 26.52264434 C44.57457244 26.55285102 38.65347703 26.56761662 32.73222327 26.57092446 C29.19956322 26.57326977 25.66721298 26.58216194 22.13463593 26.60738564 C18.18989901 26.63509834 14.24554027 26.63082127 10.30070496 26.62387085 C9.13885681 26.63668091 7.97700867 26.64949097 6.779953 26.66268921 C0.50154909 26.62240558 -5.27480672 26.32654089 -10.29402161 22.15390015 C-13.12647972 17.4296327 -13.07639488 12.51431901 -12.29402161 7.15390015 C-9.40637912 1.61477924 -5.98680227 0.03404718 0 0 Z " fill="#0C0C0C" transform="translate(151.2940216064453,230.84609985351563)"/>
<path d="M0 0 C1.68886574 -0.00639748 1.68886574 -0.00639748 3.41184998 -0.01292419 C4.65294525 -0.01247101 5.89404053 -0.01201782 7.17274475 -0.0115509 C9.1264222 -0.01658882 9.1264222 -0.01658882 11.11956787 -0.02172852 C14.69805382 -0.03057858 18.27651587 -0.03290704 21.8550117 -0.0335443 C24.83971109 -0.03449265 27.82440488 -0.03817006 30.80910212 -0.0417164 C37.84926451 -0.0498647 44.88941412 -0.05230028 51.92958069 -0.05158997 C59.19819813 -0.05098899 66.4667414 -0.06154387 73.73534006 -0.07733363 C79.97062338 -0.09039732 86.20588243 -0.09577436 92.44117934 -0.09513456 C96.16754833 -0.09487923 99.89385143 -0.09774929 103.62020683 -0.10831261 C107.77449005 -0.11976709 111.92860642 -0.11525397 116.082901 -0.10920715 C117.94150757 -0.11763641 117.94150757 -0.11763641 119.83766174 -0.12623596 C120.96639206 -0.12204147 122.09512238 -0.11784698 123.25805664 -0.11352539 C124.2408557 -0.11407016 125.22365477 -0.11461493 126.23623562 -0.1151762 C128.69252014 0.13371277 128.69252014 0.13371277 131.69252014 2.13371277 C131.36252014 2.79371277 131.03252014 3.45371277 130.69252014 4.13371277 C129.70252014 3.47371277 128.71252014 2.81371277 127.69252014 2.13371277 C125.18132652 1.83746198 125.18132652 1.83746198 122.32052612 1.89320374 C121.2057338 1.89045441 120.09094147 1.88770508 118.94236755 1.88487244 C117.7188559 1.89206299 116.49534424 1.89925354 115.23475647 1.90666199 C113.94684708 1.90636993 112.65893768 1.90607788 111.33200073 1.90577698 C107.79917754 1.9052025 104.26648981 1.91697206 100.73369813 1.93092489 C97.04213791 1.9434165 93.35057468 1.94460151 89.65899658 1.94697571 C82.66795455 1.9531951 75.67697498 1.96961211 68.68596047 1.98967469 C60.72716357 2.01201942 52.76836371 2.02302353 44.80954325 2.03306556 C28.43716564 2.05397795 12.06485086 2.08916283 -4.30747986 2.13371277 C-4.30747986 2.79371277 -4.30747986 3.45371277 -4.30747986 4.13371277 C-5.27685486 4.81433777 -6.24622986 5.49496277 -7.24497986 6.19621277 C-9.42150055 7.89645952 -10.20769173 8.7596642 -10.92857361 11.46183777 C-11.15695256 13.69643795 -11.29769483 15.88804913 -11.30747986 18.13371277 C-11.63747986 18.13371277 -11.96747986 18.13371277 -12.30747986 18.13371277 C-13.16849844 7.38054732 -13.16849844 7.38054732 -9.93247986 3.50871277 C-6.3224204 0.24246849 -4.75677801 0.00811425 0 0 Z " fill="#818183" transform="translate(151.30747985839844,230.8662872314453)"/>
<path d="M0 0 C0 0.33 0 0.66 0 1 C-3.63 1 -7.26 1 -11 1 C-11.66 2.32 -12.32 3.64 -13 5 C-13.99 6.485 -13.99 6.485 -15 8 C-15.66 8 -16.32 8 -17 8 C-17.19814261 14.08408472 -17.19814261 14.08408472 -16 20 C-17.93860432 18.38021124 -18.9031085 17.45827059 -19.43359375 14.94921875 C-19.44299848 9.50387995 -18.85965948 6.15655636 -15 2 C-9.53244012 -1.25950685 -6.00603148 -1.15905871 0 0 Z " fill="#979798" transform="translate(84,60)"/>
<path d="" fill="#FFFFFF" transform="translate(0,0)"/>
</svg>
